#Comment line ignore any data following # character 
#Hierarchical Translation and Rotation (.htr) file 
[Header]	
#Header keywords are followed by a single value 
FileType HTR		#Single word string
DataType HTRS		#Translation followed by rotation and scale data
FileVersion 1		#integer
NumSegments 84		#integer
NumFrames 2		#integer
DataFrameRate 30		#integer, data frame rate in this file
EulerRotationOrder ZYX
CalibrationUnits mm
RotationUnits Degrees
GlobalAxisofGravity Y
BoneLengthAxis Y
ScaleFactor 1.00
[SegmentNames&Hierarchy]
#CHILD	PARENT
MASTER GLOBAL
root MASTER
chest root
L_mid_tent01 root
R_mid_tent01 root
spine01 root
Bip01_Neck chest
L_humerus chest
R_humerus chest
weapon_bone chest
Bip01_Head Bip01_Neck
eye_left_bone Bip01_Head
eye_right_bone Bip01_Head
L_forearm L_humerus
L_front_hand L_forearm
L_weapon_bone L_forearm
L_front_hand01_01 L_front_hand
L_front_hand02_01 L_front_hand
L_front_hand03_01 L_front_hand
L_front_hand01_02 L_front_hand01_01
L_front_hand02_02 L_front_hand02_01
L_front_hand03_02 L_front_hand03_01
R_forearm R_humerus
R_front_hand R_forearm
R_weapon_bone R_forearm
R_front_hand01_01 R_front_hand
R_front_hand02_01 R_front_hand
R_front_hand03_01 R_front_hand
R_front_hand01_02 R_front_hand01_01
R_front_hand02_02 R_front_hand02_01
R_front_hand03_02 R_front_hand03_01
null_rope01_connect L_mid_tent01
Rope1_Seg01 null_rope01_connect
Rope1_Seg02 Rope1_Seg01
Rope1_Seg03 Rope1_Seg02
Rope1_Seg04 Rope1_Seg03
Rope1_Seg05 Rope1_Seg04
Rope1_Seg06 Rope1_Seg05
Rope1_Seg07 Rope1_Seg06
Rope1_Seg09 Rope1_Seg07
L_mid_hand01 Rope1_Seg09
L_mid_hand02 Rope1_Seg09
L_mid_hand03 Rope1_Seg09
null_rope02_connect R_mid_tent01
Rope2_Seg01 null_rope02_connect
Rope2_Seg02 Rope2_Seg01
Rope2_Seg03 Rope2_Seg02
Rope2_Seg04 Rope2_Seg03
Rope2_Seg05 Rope2_Seg04
Rope2_Seg06 Rope2_Seg05
Rope2_Seg07 Rope2_Seg06
Rope2_Seg09 Rope2_Seg07
R_mid_hand01 Rope2_Seg09
R_mid_hand02 Rope2_Seg09
R_mid_hand03 Rope2_Seg09
spine02 spine01
spine03 spine02
pelvis spine03
null_rope03_connect pelvis
null_rope04_connect pelvis
Rope3_Seg01 null_rope03_connect
Rope3_Seg02 Rope3_Seg01
Rope3_Seg03 Rope3_Seg02
Rope3_Seg04 Rope3_Seg03
Rope3_Seg05 Rope3_Seg04
Rope3_Seg06 Rope3_Seg05
Rope3_Seg07 Rope3_Seg06
Rope3_Seg08 Rope3_Seg07
Rope3_Seg09 Rope3_Seg08
R_rear_hand01 Rope3_Seg09
R_rear_hand02 Rope3_Seg09
R_rear_hand03 Rope3_Seg09
Rope4_Seg01 null_rope04_connect
Rope4_Seg02 Rope4_Seg01
Rope4_Seg03 Rope4_Seg02
Rope4_Seg04 Rope4_Seg03
Rope4_Seg05 Rope4_Seg04
Rope4_Seg06 Rope4_Seg05
Rope4_Seg07 Rope4_Seg06
Rope4_Seg08 Rope4_Seg07
Rope4_Seg09 Rope4_Seg08
L_rear_hand01 Rope4_Seg09
L_rear_hand02 Rope4_Seg09
L_rear_hand03 Rope4_Seg09
[BasePosition]
#SegmentName Tx, Ty, Tz, Rx, Ry, Rz, BoneLength
MASTER 0.000000 0.000000 0.000000 -90.000000 0.000000 0.000000 10.000000 
root 0.000000 0.000000 0.000000 0.000000 0.000000 0.000000 10.000000 
chest 0.000000 0.000000 0.000000 0.000000 0.000000 0.000000 10.000000 
L_mid_tent01 0.000000 0.000000 0.000000 0.000000 0.000000 0.000000 10.000000 
R_mid_tent01 0.000000 0.000000 0.000000 0.000000 0.000000 0.000000 10.000000 
spine01 0.000000 0.000000 0.000000 0.000000 0.000000 0.000000 10.000000 
Bip01_Neck 0.000000 0.000000 0.000000 0.000000 0.000000 0.000000 10.000000 
L_humerus 0.000000 0.000000 0.000000 0.000000 0.000000 0.000000 10.000000 
R_humerus 0.000000 0.000000 0.000000 0.000000 0.000000 0.000000 10.000000 
weapon_bone 0.000000 0.000000 0.000000 0.000000 0.000000 0.000000 10.000000 
Bip01_Head 0.000000 0.000000 0.000000 0.000000 0.000000 0.000000 10.000000 
eye_left_bone 0.000000 0.000000 0.000000 0.000000 0.000000 0.000000 10.000000 
eye_right_bone 0.000000 0.000000 0.000000 0.000000 0.000000 0.000000 10.000000 
L_forearm 0.000000 0.000000 0.000000 0.000000 0.000000 0.000000 10.000000 
L_front_hand 0.000000 0.000000 0.000000 0.000000 0.000000 0.000000 10.000000 
L_weapon_bone 0.000000 0.000000 0.000000 0.000000 0.000000 0.000000 10.000000 
L_front_hand01_01 0.000000 0.000000 0.000000 0.000000 0.000000 0.000000 10.000000 
L_front_hand02_01 0.000000 0.000000 0.000000 0.000000 0.000000 0.000000 10.000000 
L_front_hand03_01 0.000000 0.000000 0.000000 0.000000 0.000000 0.000000 10.000000 
L_front_hand01_02 0.000000 0.000000 0.000000 0.000000 0.000000 0.000000 10.000000 
L_front_hand02_02 0.000000 0.000000 0.000000 0.000000 0.000000 0.000000 10.000000 
L_front_hand03_02 0.000000 0.000000 0.000000 0.000000 0.000000 0.000000 10.000000 
R_forearm 0.000000 0.000000 0.000000 0.000000 0.000000 0.000000 10.000000 
R_front_hand 0.000000 0.000000 0.000000 0.000000 0.000000 0.000000 10.000000 
R_weapon_bone 0.000000 0.000000 0.000000 0.000000 0.000000 0.000000 10.000000 
R_front_hand01_01 0.000000 0.000000 0.000000 0.000000 0.000000 0.000000 10.000000 
R_front_hand02_01 0.000000 0.000000 0.000000 0.000000 0.000000 0.000000 10.000000 
R_front_hand03_01 0.000000 0.000000 0.000000 0.000000 0.000000 0.000000 10.000000 
R_front_hand01_02 0.000000 0.000000 0.000000 0.000000 0.000000 0.000000 10.000000 
R_front_hand02_02 0.000000 0.000000 0.000000 0.000000 0.000000 0.000000 10.000000 
R_front_hand03_02 0.000000 0.000000 0.000000 0.000000 0.000000 0.000000 10.000000 
null_rope01_connect 0.000000 0.000000 0.000000 0.000000 0.000000 0.000000 10.000000 
Rope1_Seg01 0.000000 0.000000 0.000000 0.000000 0.000000 0.000000 10.000000 
Rope1_Seg02 0.000000 0.000000 0.000000 0.000000 0.000000 0.000000 10.000000 
Rope1_Seg03 0.000000 0.000000 0.000000 0.000000 0.000000 0.000000 10.000000 
Rope1_Seg04 0.000000 0.000000 0.000000 0.000000 0.000000 0.000000 10.000000 
Rope1_Seg05 0.000000 0.000000 0.000000 0.000000 0.000000 0.000000 10.000000 
Rope1_Seg06 0.000000 0.000000 0.000000 0.000000 0.000000 0.000000 10.000000 
Rope1_Seg07 0.000000 0.000000 0.000000 0.000000 0.000000 0.000000 10.000000 
Rope1_Seg09 0.000000 0.000000 0.000000 0.000000 0.000000 0.000000 10.000000 
L_mid_hand01 0.000000 0.000000 0.000000 0.000000 0.000000 0.000000 10.000000 
L_mid_hand02 0.000000 0.000000 0.000000 0.000000 0.000000 0.000000 10.000000 
L_mid_hand03 0.000000 0.000000 0.000000 0.000000 0.000000 0.000000 10.000000 
null_rope02_connect 0.000000 0.000000 0.000000 0.000000 0.000000 0.000000 10.000000 
Rope2_Seg01 0.000000 0.000000 0.000000 0.000000 0.000000 0.000000 10.000000 
Rope2_Seg02 0.000000 0.000000 0.000000 0.000000 0.000000 0.000000 10.000000 
Rope2_Seg03 0.000000 0.000000 0.000000 0.000000 0.000000 0.000000 10.000000 
Rope2_Seg04 0.000000 0.000000 0.000000 0.000000 0.000000 0.000000 10.000000 
Rope2_Seg05 0.000000 0.000000 0.000000 0.000000 0.000000 0.000000 10.000000 
Rope2_Seg06 0.000000 0.000000 0.000000 0.000000 0.000000 0.000000 10.000000 
Rope2_Seg07 0.000000 0.000000 0.000000 0.000000 0.000000 0.000000 10.000000 
Rope2_Seg09 0.000000 0.000000 0.000000 0.000000 0.000000 0.000000 10.000000 
R_mid_hand01 0.000000 0.000000 0.000000 0.000000 0.000000 0.000000 10.000000 
R_mid_hand02 0.000000 0.000000 0.000000 0.000000 0.000000 0.000000 10.000000 
R_mid_hand03 0.000000 0.000000 0.000000 0.000000 0.000000 0.000000 10.000000 
spine02 0.000000 0.000000 0.000000 0.000000 0.000000 0.000000 10.000000 
spine03 0.000000 0.000000 0.000000 0.000000 0.000000 0.000000 10.000000 
pelvis 0.000000 0.000000 0.000000 0.000000 0.000000 0.000000 10.000000 
null_rope03_connect 0.000000 0.000000 0.000000 0.000000 0.000000 0.000000 10.000000 
null_rope04_connect 0.000000 0.000000 0.000000 0.000000 0.000000 0.000000 10.000000 
Rope3_Seg01 0.000000 0.000000 0.000000 0.000000 0.000000 0.000000 10.000000 
Rope3_Seg02 0.000000 0.000000 0.000000 0.000000 0.000000 0.000000 10.000000 
Rope3_Seg03 0.000000 0.000000 0.000000 0.000000 0.000000 0.000000 10.000000 
Rope3_Seg04 0.000000 0.000000 0.000000 0.000000 0.000000 0.000000 10.000000 
Rope3_Seg05 0.000000 0.000000 0.000000 0.000000 0.000000 0.000000 10.000000 
Rope3_Seg06 0.000000 0.000000 0.000000 0.000000 0.000000 0.000000 10.000000 
Rope3_Seg07 0.000000 0.000000 0.000000 0.000000 0.000000 0.000000 10.000000 
Rope3_Seg08 0.000000 0.000000 0.000000 0.000000 0.000000 0.000000 10.000000 
Rope3_Seg09 0.000000 0.000000 0.000000 0.000000 0.000000 0.000000 10.000000 
R_rear_hand01 0.000000 0.000000 0.000000 0.000000 0.000000 0.000000 10.000000 
R_rear_hand02 0.000000 0.000000 0.000000 0.000000 0.000000 0.000000 10.000000 
R_rear_hand03 0.000000 0.000000 0.000000 0.000000 0.000000 0.000000 10.000000 
Rope4_Seg01 0.000000 0.000000 0.000000 0.000000 0.000000 0.000000 10.000000 
Rope4_Seg02 0.000000 0.000000 0.000000 0.000000 0.000000 0.000000 10.000000 
Rope4_Seg03 0.000000 0.000000 0.000000 0.000000 0.000000 0.000000 10.000000 
Rope4_Seg04 0.000000 0.000000 0.000000 0.000000 0.000000 0.000000 10.000000 
Rope4_Seg05 0.000000 0.000000 0.000000 0.000000 0.000000 0.000000 10.000000 
Rope4_Seg06 0.000000 0.000000 0.000000 0.000000 0.000000 0.000000 10.000000 
Rope4_Seg07 0.000000 0.000000 0.000000 0.000000 0.000000 0.000000 10.000000 
Rope4_Seg08 0.000000 0.000000 0.000000 0.000000 0.000000 0.000000 10.000000 
Rope4_Seg09 0.000000 0.000000 0.000000 0.000000 0.000000 0.000000 10.000000 
L_rear_hand01 0.000000 0.000000 0.000000 0.000000 0.000000 0.000000 10.000000 
L_rear_hand02 0.000000 0.000000 0.000000 0.000000 0.000000 0.000000 10.000000 
L_rear_hand03 0.000000 0.000000 0.000000 0.000000 0.000000 0.000000 10.000000 
#Beginning of Data. Separated by tabs
#Fr	Tx	Ty	Tz	Rx	Ry	Rz	SF
[MASTER]
16 2728.041748 3949.457764 2002.948730 0.001660 0.001660 0.001660 5201.175781
17 2921.972900 4185.868164 2031.105469 0.001660 0.001660 0.001660 5494.070313
[root]
16 -37.064213 -46.201790 1500.543823 -116.397179 -18.646563 -103.236305 1501.712402
17 -37.669067 -48.965149 1502.080322 -115.283539 -19.564518 -102.302933 1503.350220
[chest]
16 -84.512650 -34.090519 0.000000 -16.710114 18.630512 146.338913 91.129311
17 -84.512650 -34.090519 0.000000 -16.714621 19.191889 146.806030 91.129311
[L_mid_tent01]
16 27.298435 22.179146 -249.918961 2.919489 23.201559 80.959427 252.381866
17 27.298393 22.179138 -249.918991 3.076931 24.286263 81.101379 252.381897
[R_mid_tent01]
16 23.228794 24.509907 226.238495 162.007874 -31.274019 83.568474 228.744751
17 23.228794 24.509907 226.238495 161.368820 -36.253017 84.967690 228.744751
[spine01]
16 -0.361383 -0.195265 0.000000 0.002053 0.001139 31.957903 0.410763
17 -0.361383 -0.195265 0.000000 0.002050 0.001143 31.695620 0.410763
[Bip01_Neck]
16 165.484543 71.581718 0.000119 176.643677 -1.657967 43.431911 180.302734
17 165.484543 71.581718 0.000119 176.643677 -1.657967 43.431911 180.302734
[L_humerus]
16 -13.983130 -135.272980 -120.471481 -7.082582 63.652912 82.753624 181.680161
17 -13.983130 -135.272980 -120.471481 -7.065363 63.740829 82.775703 181.680161
[R_humerus]
16 -13.983309 -135.273102 125.287651 25.568293 -64.428352 70.156609 184.909012
17 -13.983309 -135.273102 125.287651 25.596910 -64.521523 70.131378 184.909012
[weapon_bone]
16 235.964890 -300.705902 0.000000 0.000000 -89.951546 -128.212341 382.234833
17 235.964890 -300.705902 0.000000 0.000000 -89.951546 -128.212341 382.234833
[Bip01_Head]
16 213.619385 185.227356 18.079218 4.439927 -1.377867 -43.899544 283.318329
17 213.581238 185.333557 16.708298 4.438732 -1.282231 -43.900688 283.274841
[eye_left_bone]
16 -24.626970 125.451866 -64.772606 0.000000 -90.000000 -99.840431 143.318359
17 -24.626970 125.451866 -64.772606 0.000000 -90.000000 -99.840431 143.318359
[eye_right_bone]
16 -24.626970 125.451866 64.327362 0.000000 -89.965736 80.156380 143.117676
17 -24.626970 125.451866 64.327362 0.000000 -89.965736 80.156380 143.117676
[L_forearm]
16 322.776093 0.000000 -0.000119 0.000432 -0.002307 -111.191727 322.776093
17 322.776093 0.000000 -0.000119 0.000431 -0.002307 -111.155769 322.776093
[L_front_hand]
16 241.149185 -0.042021 -3.300071 -178.667953 -1.835447 -27.422350 241.171753
17 241.149185 -0.042021 -3.300071 -178.667953 -1.835447 -27.422344 241.171753
[L_weapon_bone]
16 156.183838 0.000000 0.000000 0.000014 0.000007 0.000001 156.183838
17 156.183838 0.000000 0.000000 0.000014 0.000007 0.000001 156.183838
[L_front_hand01_01]
16 86.095154 20.947098 -0.655860 -0.280373 -0.529283 65.613800 88.609184
17 86.095154 20.947098 -0.655860 -0.282467 -0.528169 66.067474 88.609184
[L_front_hand02_01]
16 86.935165 -11.437475 24.513514 141.458649 -54.658344 -46.027485 91.046425
17 86.935165 -11.437475 24.513514 141.960785 -54.937954 -46.642345 91.046425
[L_front_hand03_01]
16 86.637497 -14.123976 -20.424902 -141.832764 52.885189 -48.080185 90.126129
17 86.637497 -14.123976 -20.424902 -142.303543 53.163303 -48.671032 90.126129
[L_front_hand01_02]
16 71.020905 -0.000179 0.000030 0.000315 -0.002326 -105.400543 71.020905
17 71.020905 -0.000179 0.000030 0.000315 -0.002326 -105.421257 71.020905
[L_front_hand02_02]
16 71.020927 -0.000119 0.000060 0.000315 -0.002326 -105.400543 71.020927
17 71.020927 -0.000119 0.000060 0.000315 -0.002326 -105.421257 71.020927
[L_front_hand03_02]
16 71.020905 -0.000060 0.000060 0.000315 -0.002326 -105.400543 71.020905
17 71.020905 -0.000060 0.000060 0.000315 -0.002326 -105.421257 71.020905
[R_forearm]
16 322.776428 -0.000060 0.000030 0.201066 0.068290 -109.843300 322.776428
17 322.776428 -0.000060 0.000030 0.201080 0.068247 -109.819130 322.776428
[R_front_hand]
16 238.847015 -0.006795 2.210259 -2.635298 -10.645461 -26.312506 238.857239
17 238.847015 -0.006795 2.210259 -2.635298 -10.645460 -26.312500 238.857239
[R_weapon_bone]
16 155.664093 0.002503 -0.000030 0.003487 0.001180 -90.988930 155.664078
17 155.664093 0.002503 -0.000030 0.003487 0.001180 -90.988930 155.664078
[R_front_hand01_01]
16 87.624611 14.231146 22.918642 -138.672287 -52.939835 42.677601 91.683487
17 87.624611 14.231146 22.918642 -139.271561 -53.333107 43.426708 91.683487
[R_front_hand02_01]
16 89.356956 14.367283 -19.491137 139.502045 51.377892 45.363930 92.579636
17 89.356956 14.367283 -19.491137 140.080994 51.767307 46.104946 92.579636
[R_front_hand03_01]
16 87.286232 -22.307278 -0.143439 0.064897 -0.451663 -63.182877 90.091743
17 87.286232 -22.307278 -0.143439 0.071479 -0.448702 -63.787704 90.091743
[R_front_hand01_02]
16 71.020905 0.000060 0.000119 0.002323 -0.000334 106.381714 71.020905
17 71.020905 0.000060 0.000119 0.002323 -0.000334 106.381706 71.020905
[R_front_hand02_02]
16 71.020844 -0.000030 -0.000119 0.002323 -0.000334 106.381714 71.020836
17 71.020844 -0.000030 -0.000119 0.002323 -0.000334 106.381706 71.020836
[R_front_hand03_02]
16 71.020905 0.000000 0.000030 0.002323 -0.000334 106.381714 71.020905
17 71.020905 0.000000 0.000030 0.002323 -0.000334 106.381706 71.020905
[null_rope01_connect]
16 328.732483 0.000000 -0.000238 -144.197388 -33.812138 168.583817 328.732483
17 328.732483 0.000000 -0.000238 -143.582474 -34.153889 169.259415 328.732483
[Rope1_Seg01]
16 -0.000014 0.000024 0.000057 104.634384 -18.235340 178.714600 0.000064
17 -0.000015 0.000023 0.000061 105.261238 -24.191147 174.955444 0.000067
[Rope1_Seg02]
16 139.999863 -0.000179 0.000000 4.195147 -13.920134 -5.777421 139.999863
17 139.999863 -0.000179 0.000000 2.033772 -10.817026 -4.395266 139.999863
[Rope1_Seg03]
16 139.999924 0.000060 -0.000060 4.114403 -24.407080 -8.306107 139.999924
17 139.999924 0.000060 -0.000060 2.112902 -19.290571 -7.501870 139.999924
[Rope1_Seg04]
16 139.999924 -0.000060 -0.000119 -0.734950 -22.868723 -6.195648 139.999924
17 139.999924 -0.000060 -0.000119 -0.134935 -22.996971 -10.311006 139.999924
[Rope1_Seg05]
16 139.999832 0.000119 -0.000060 -4.550329 -29.021364 -14.322009 139.999832
17 139.999832 0.000119 -0.000060 -3.534821 -21.039351 -7.445826 139.999832
[Rope1_Seg06]
16 139.999954 0.000119 -0.000060 -6.973667 -30.755140 -23.230219 139.999954
17 139.999954 0.000119 -0.000060 -11.370879 -35.626427 -13.338086 139.999954
[Rope1_Seg07]
16 139.999985 0.000060 0.000000 -3.926791 -10.043162 -10.543711 139.999985
17 139.999985 0.000060 0.000000 -10.299802 -18.836332 -13.509668 139.999985
[Rope1_Seg09]
16 121.602913 0.000119 -0.000089 -89.793175 -1.359789 0.847147 121.602913
17 121.602913 0.000119 -0.000089 -89.793175 -1.359789 0.847147 121.602913
[L_mid_hand01]
16 103.859421 1.038730 8.195221 122.214622 -62.281231 -29.682964 104.187431
17 103.859421 1.038730 8.195221 126.075401 -65.098549 -33.991913 104.187431
[L_mid_hand02]
16 105.572853 -4.139662 -10.864139 -163.055801 41.815437 -64.846191 106.211075
17 105.572853 -4.139662 -10.864139 -166.035263 42.723965 -69.273842 106.211075
[L_mid_hand03]
16 104.641464 17.579376 -3.913581 -8.059158 17.002197 68.062881 106.179977
17 104.641464 17.579376 -3.913581 -7.014418 17.452778 71.596474 106.179977
[null_rope02_connect]
16 328.732849 0.000179 -0.000119 -62.284306 81.186996 93.116119 328.732849
17 328.732849 0.000179 -0.000119 -96.249611 78.814980 57.889603 328.732849
[Rope2_Seg01]
16 0.000052 0.000095 0.000000 -96.253288 30.074860 -24.602539 0.000109
17 0.000053 0.000092 0.000000 -88.788757 28.089951 -22.961452 0.000106
[Rope2_Seg02]
16 139.999741 -0.000060 -0.000119 -15.422038 -0.477909 7.603016 139.999756
17 139.999741 -0.000060 -0.000119 -11.101377 -0.240252 5.184581 139.999756
[Rope2_Seg03]
16 140.000107 0.000030 0.000000 -16.046646 -4.509405 13.259014 140.000107
17 140.000107 0.000030 0.000000 -13.386575 -2.154586 8.848982 140.000107
[Rope2_Seg04]
16 139.999802 0.000000 -0.000060 -14.743055 -16.251757 24.563597 139.999802
17 139.999802 0.000000 -0.000060 -15.198979 -8.921938 18.060022 139.999802
[Rope2_Seg05]
16 139.999985 -0.000060 0.000119 -6.202492 -20.410402 20.847780 139.999985
17 139.999985 -0.000060 0.000119 -14.725173 -24.644976 33.141949 139.999985
[Rope2_Seg06]
16 139.999893 -0.000030 -0.000119 -0.658157 -13.513349 14.054296 139.999893
17 139.999893 -0.000030 -0.000119 -1.789072 -17.305843 15.685288 139.999893
[Rope2_Seg07]
16 139.999893 0.000060 -0.000060 4.918446 -20.281689 24.414280 139.999893
17 139.999893 0.000060 -0.000060 0.687804 -17.058140 13.427870 139.999893
[Rope2_Seg09]
16 121.338966 0.000089 -0.000060 33.793236 -1.359788 -0.847141 121.338966
17 121.338966 0.000089 -0.000060 33.793236 -1.359788 -0.847141 121.338966
[R_mid_hand01]
16 104.680779 11.144459 -10.335981 -32.057350 37.073116 46.635818 105.778534
17 104.680779 11.144459 -10.335981 -28.450209 39.729855 52.441807 105.778534
[R_mid_hand02]
16 104.070427 2.443552 8.231699 66.850014 -50.884758 18.890066 104.424065
17 104.070427 2.443552 8.231699 63.903580 -55.672924 22.558943 104.424065
[R_mid_hand03]
16 106.028137 -11.221827 -5.996406 -171.959641 13.662919 -56.404911 106.788818
17 106.028137 -11.221827 -5.996406 -173.263687 14.341302 -61.789295 106.788818
[spine02]
16 129.756927 0.001550 0.000119 0.538614 -4.023777 -15.474610 129.756927
17 129.756927 0.001550 0.000119 0.534315 -4.024356 -15.422028 129.756927
[spine03]
16 78.614021 0.081730 -4.898884 2.000257 3.776486 18.067295 78.766556
17 78.614021 0.081726 -4.898876 1.999574 3.779497 18.034771 78.766548
[pelvis]
16 169.435242 0.051022 0.000000 -0.070410 -0.177705 17.318193 169.435257
17 169.435242 0.051022 0.000000 -0.070309 -0.177745 17.253162 169.435257
[null_rope03_connect]
16 -1.257226 -2.466202 137.391083 -139.207581 -58.068207 -166.742966 137.418976
17 -1.257226 -2.466202 137.391083 -138.813782 -59.543324 -165.591553 137.418976
[null_rope04_connect]
16 -1.259640 -2.480268 -137.844437 -139.207581 -58.068207 -166.742966 137.872513
17 -1.259640 -2.480268 -137.844437 -138.813782 -59.543324 -165.591553 137.872513
[Rope3_Seg01]
16 -0.000012 -0.000277 -0.000153 -142.930283 22.660212 -110.933578 0.000316
17 -0.000011 -0.000290 -0.000153 -134.820313 15.714964 -93.859772 0.000328
[Rope3_Seg02]
16 139.999924 -0.000119 0.000060 -1.004841 0.951791 3.941055 139.999924
17 139.999924 -0.000119 0.000060 1.027954 6.012391 6.874591 139.999924
[Rope3_Seg03]
16 139.999924 -0.000119 0.000119 3.029471 5.879873 3.952698 139.999924
17 139.999924 -0.000119 0.000119 5.889927 12.417495 6.468721 139.999924
[Rope3_Seg04]
16 139.999924 0.000119 0.000000 -6.209408 -5.842721 2.079501 139.999924
17 139.999924 0.000119 0.000000 -16.508341 -25.564112 5.262101 139.999924
[Rope3_Seg05]
16 139.999924 -0.000238 0.000060 -15.456775 -35.010281 -2.201412 139.999924
17 139.999924 -0.000238 0.000060 -1.321083 -49.986008 -9.556482 139.999924
[Rope3_Seg06]
16 139.999893 -0.000119 -0.000060 0.523059 -28.420792 -10.122580 139.999893
17 139.999893 -0.000119 -0.000060 4.822503 -17.748016 -4.018611 139.999893
[Rope3_Seg07]
16 139.999771 0.000060 -0.000119 1.920241 -10.490480 -3.845991 139.999771
17 139.999771 0.000060 -0.000119 1.970107 -4.321886 -0.617179 139.999771
[Rope3_Seg08]
16 139.999985 -0.000060 0.000000 0.620739 -0.546347 -0.179346 139.999985
17 139.999985 -0.000060 0.000000 0.535796 0.001652 0.001667 139.999985
[Rope3_Seg09]
16 90.185997 -0.000179 -0.000060 89.793228 -1.359877 -0.847183 90.185997
17 90.185997 -0.000179 -0.000060 89.793228 -1.359877 -0.847183 90.185997
[R_rear_hand01]
16 103.366196 -6.073594 -10.757982 -169.706436 22.536156 -54.046982 104.101845
17 103.366196 -6.073594 -10.757982 -171.885513 23.373785 -59.632885 104.101845
[R_rear_hand02]
16 100.509819 12.039542 -7.992327 -24.637733 30.906170 51.254921 101.543350
17 100.509819 12.039542 -7.992327 -21.647255 32.954239 56.905464 101.543350
[R_rear_hand03]
16 101.539970 5.215704 5.435467 80.293877 -53.997543 11.741186 101.819031
17 101.539970 5.215704 5.435467 78.870155 -59.127991 13.449200 101.819031
[Rope4_Seg01]
16 0.000000 -0.000482 -0.000210 51.671585 -9.107909 -140.343033 0.000525
17 0.000000 -0.000511 -0.000214 64.040009 -22.296286 -144.295746 0.000554
[Rope4_Seg02]
16 139.999985 0.000060 0.000119 -20.383718 12.288150 -22.216045 139.999985
17 139.999985 0.000060 0.000119 -27.984678 11.177014 -26.459234 139.999985
[Rope4_Seg03]
16 139.999924 0.000000 -0.000238 -5.271336 8.498222 -5.783743 139.999924
17 139.999924 0.000000 -0.000238 -10.200795 15.993153 -9.237383 139.999924
[Rope4_Seg04]
16 139.999985 0.000000 0.000119 -3.172069 4.581785 -4.894996 139.999985
17 139.999985 0.000000 0.000119 -6.411602 7.400905 -10.522812 139.999985
[Rope4_Seg05]
16 139.999802 -0.000060 -0.000119 -10.195379 11.516312 -17.791433 139.999802
17 139.999802 -0.000060 -0.000119 -24.168886 16.766546 -43.394966 139.999802
[Rope4_Seg06]
16 139.999924 0.000000 0.000060 -17.749172 28.764383 -36.180054 139.999924
17 139.999924 0.000000 0.000060 -12.132701 24.673813 -28.522268 139.999924
[Rope4_Seg07]
16 139.999802 0.000000 0.000000 -1.100826 19.814161 -16.538349 139.999802
17 139.999802 0.000000 0.000000 -0.351158 8.525786 -7.190594 139.999802
[Rope4_Seg08]
16 139.999924 0.000000 0.000119 -0.734945 3.555070 -3.000270 139.999924
17 139.999924 0.000000 0.000119 -1.380659 1.289513 -1.082307 139.999924
[Rope4_Seg09]
16 90.185791 0.000060 0.000060 -135.617828 2.228885 0.850567 90.185791
17 90.185791 0.000060 0.000060 -135.617828 2.228885 0.850567 90.185791
[L_rear_hand01]
16 101.696655 -8.392275 -7.654577 -16.606979 -35.526840 114.151619 102.329041
17 101.696655 -8.392275 -7.654577 -14.676040 -36.272415 110.857796 102.329041
[L_rear_hand02]
16 102.726799 -1.568258 5.773216 75.446785 66.761177 162.720428 102.900848
17 102.726799 -1.568258 5.773216 73.610291 69.437737 160.740738 102.900848
[L_rear_hand03]
16 104.552910 9.721220 -10.420293 -175.325211 -24.244322 -111.864204 105.519653
17 104.552910 9.721220 -10.420293 -176.571304 -24.441328 -108.830574 105.519653
